<mxfile host="app.diagrams.net" agent="Mozilla/5.0 (Windows NT 10.0; Win64; x64) AppleWebKit/537.36 (KHTML, like Gecko) Chrome/132.0.0.0 Safari/537.36 OPR/117.0.0.0" version="26.2.14">
  <diagram name="Page-1" id="eFq28OEQVNQ_KN_rxQPZ">
    <mxGraphModel dx="1382" dy="762" grid="1" gridSize="10" guides="1" tooltips="1" connect="1" arrows="1" fold="1" page="1" pageScale="1" pageWidth="850" pageHeight="1100" math="0" shadow="0">
      <root>
        <mxCell id="0" />
        <mxCell id="1" parent="0" />
        <mxCell id="8mjCv3t_EtpFAo0UFj7W-8" value="" style="rounded=1;whiteSpace=wrap;html=1;" vertex="1" parent="1">
          <mxGeometry x="79" y="370" width="700" height="550" as="geometry" />
        </mxCell>
        <mxCell id="8mjCv3t_EtpFAo0UFj7W-10" value="VPC" style="sketch=0;outlineConnect=0;gradientColor=none;html=1;whiteSpace=wrap;fontSize=12;fontStyle=0;shape=mxgraph.aws4.group;grIcon=mxgraph.aws4.group_vpc;strokeColor=#879196;fillColor=none;verticalAlign=top;align=left;spacingLeft=30;fontColor=#879196;dashed=0;" vertex="1" parent="1">
          <mxGeometry x="115" y="470" width="630" height="420" as="geometry" />
        </mxCell>
        <mxCell id="8mjCv3t_EtpFAo0UFj7W-18" style="edgeStyle=orthogonalEdgeStyle;rounded=0;orthogonalLoop=1;jettySize=auto;html=1;startArrow=classic;startFill=1;" edge="1" parent="1" source="8mjCv3t_EtpFAo0UFj7W-1" target="8mjCv3t_EtpFAo0UFj7W-4">
          <mxGeometry relative="1" as="geometry" />
        </mxCell>
        <mxCell id="8mjCv3t_EtpFAo0UFj7W-19" value="Alerts/Tickets" style="edgeLabel;html=1;align=center;verticalAlign=middle;resizable=0;points=[];" vertex="1" connectable="0" parent="8mjCv3t_EtpFAo0UFj7W-18">
          <mxGeometry x="-0.0557" y="4" relative="1" as="geometry">
            <mxPoint as="offset" />
          </mxGeometry>
        </mxCell>
        <mxCell id="8mjCv3t_EtpFAo0UFj7W-1" value="Ticket Server" style="outlineConnect=0;dashed=0;verticalLabelPosition=bottom;verticalAlign=top;align=center;html=1;shape=mxgraph.aws3.traditional_server;fillColor=#7D7C7C;gradientColor=none;" vertex="1" parent="1">
          <mxGeometry x="650" y="490" width="46.5" height="63" as="geometry" />
        </mxCell>
        <mxCell id="8mjCv3t_EtpFAo0UFj7W-16" style="edgeStyle=orthogonalEdgeStyle;rounded=0;orthogonalLoop=1;jettySize=auto;html=1;startArrow=classic;startFill=1;fillColor=#60a917;strokeColor=#2D7600;dashed=1;" edge="1" parent="1" source="8mjCv3t_EtpFAo0UFj7W-2" target="8mjCv3t_EtpFAo0UFj7W-4">
          <mxGeometry relative="1" as="geometry" />
        </mxCell>
        <mxCell id="8mjCv3t_EtpFAo0UFj7W-20" value="Manage Agents" style="edgeLabel;html=1;align=center;verticalAlign=middle;resizable=0;points=[];" vertex="1" connectable="0" parent="8mjCv3t_EtpFAo0UFj7W-16">
          <mxGeometry x="-0.0396" y="-3" relative="1" as="geometry">
            <mxPoint as="offset" />
          </mxGeometry>
        </mxCell>
        <mxCell id="8mjCv3t_EtpFAo0UFj7W-2" value="Fleet Server" style="outlineConnect=0;dashed=0;verticalLabelPosition=bottom;verticalAlign=top;align=center;html=1;shape=mxgraph.aws3.traditional_server;fillColor=#7D7C7C;gradientColor=none;" vertex="1" parent="1">
          <mxGeometry x="415" y="780" width="46.5" height="63" as="geometry" />
        </mxCell>
        <mxCell id="8mjCv3t_EtpFAo0UFj7W-12" style="edgeStyle=orthogonalEdgeStyle;rounded=0;orthogonalLoop=1;jettySize=auto;html=1;" edge="1" parent="1" source="8mjCv3t_EtpFAo0UFj7W-3" target="8mjCv3t_EtpFAo0UFj7W-2">
          <mxGeometry relative="1" as="geometry" />
        </mxCell>
        <mxCell id="8mjCv3t_EtpFAo0UFj7W-13" value="Managed" style="edgeLabel;html=1;align=center;verticalAlign=middle;resizable=0;points=[];" vertex="1" connectable="0" parent="8mjCv3t_EtpFAo0UFj7W-12">
          <mxGeometry x="0.186" y="3" relative="1" as="geometry">
            <mxPoint x="-20" y="3" as="offset" />
          </mxGeometry>
        </mxCell>
        <mxCell id="8mjCv3t_EtpFAo0UFj7W-3" value="Windows Server&amp;nbsp;&lt;div&gt;RDP Enabled&lt;/div&gt;&lt;div&gt;&lt;span style=&quot;white-space: pre;&quot;&gt;&#x9;&lt;/span&gt;&lt;br&gt;&lt;/div&gt;" style="outlineConnect=0;dashed=0;verticalLabelPosition=bottom;verticalAlign=top;align=center;html=1;shape=mxgraph.aws3.traditional_server;fillColor=#7D7C7C;gradientColor=none;" vertex="1" parent="1">
          <mxGeometry x="160" y="780" width="46.5" height="63" as="geometry" />
        </mxCell>
        <mxCell id="8mjCv3t_EtpFAo0UFj7W-4" value="Elastic and Kibana" style="outlineConnect=0;dashed=0;verticalLabelPosition=bottom;verticalAlign=top;align=center;html=1;shape=mxgraph.aws3.traditional_server;fillColor=#7D7C7C;gradientColor=none;" vertex="1" parent="1">
          <mxGeometry x="415" y="490" width="46.5" height="63" as="geometry" />
        </mxCell>
        <mxCell id="8mjCv3t_EtpFAo0UFj7W-14" style="edgeStyle=orthogonalEdgeStyle;rounded=0;orthogonalLoop=1;jettySize=auto;html=1;" edge="1" parent="1" source="8mjCv3t_EtpFAo0UFj7W-5" target="8mjCv3t_EtpFAo0UFj7W-2">
          <mxGeometry relative="1" as="geometry" />
        </mxCell>
        <mxCell id="8mjCv3t_EtpFAo0UFj7W-15" value="Managed" style="edgeLabel;html=1;align=center;verticalAlign=middle;resizable=0;points=[];" vertex="1" connectable="0" parent="8mjCv3t_EtpFAo0UFj7W-14">
          <mxGeometry x="-0.0557" relative="1" as="geometry">
            <mxPoint as="offset" />
          </mxGeometry>
        </mxCell>
        <mxCell id="8mjCv3t_EtpFAo0UFj7W-5" value="Ubuntu Server&lt;div&gt;SSH Enabled&lt;/div&gt;" style="outlineConnect=0;dashed=0;verticalLabelPosition=bottom;verticalAlign=top;align=center;html=1;shape=mxgraph.aws3.traditional_server;fillColor=#7D7C7C;gradientColor=none;" vertex="1" parent="1">
          <mxGeometry x="650" y="780" width="46.5" height="63" as="geometry" />
        </mxCell>
        <mxCell id="8mjCv3t_EtpFAo0UFj7W-6" value="C2 Server&lt;div&gt;Mythic&lt;/div&gt;" style="outlineConnect=0;dashed=0;verticalLabelPosition=bottom;verticalAlign=top;align=center;html=1;shape=mxgraph.aws3.traditional_server;fillColor=#f8cecc;strokeColor=#b85450;gradientColor=#ea6b66;" vertex="1" parent="1">
          <mxGeometry x="779" y="280" width="46.5" height="63" as="geometry" />
        </mxCell>
        <mxCell id="8mjCv3t_EtpFAo0UFj7W-9" value="VULTR" style="text;html=1;align=center;verticalAlign=middle;whiteSpace=wrap;rounded=0;" vertex="1" parent="1">
          <mxGeometry x="110" y="430" width="60" height="30" as="geometry" />
        </mxCell>
        <mxCell id="8mjCv3t_EtpFAo0UFj7W-22" style="rounded=0;orthogonalLoop=1;jettySize=auto;html=1;entryX=0;entryY=0.5;entryDx=0;entryDy=0;entryPerimeter=0;dashed=1;dashPattern=8 8;" edge="1" parent="1" source="8mjCv3t_EtpFAo0UFj7W-3" target="8mjCv3t_EtpFAo0UFj7W-4">
          <mxGeometry relative="1" as="geometry" />
        </mxCell>
        <mxCell id="8mjCv3t_EtpFAo0UFj7W-24" value="Forward Logs via Agent" style="edgeLabel;html=1;align=center;verticalAlign=middle;resizable=0;points=[];" vertex="1" connectable="0" parent="8mjCv3t_EtpFAo0UFj7W-22">
          <mxGeometry x="-0.0891" y="-1" relative="1" as="geometry">
            <mxPoint as="offset" />
          </mxGeometry>
        </mxCell>
        <mxCell id="8mjCv3t_EtpFAo0UFj7W-23" style="rounded=0;orthogonalLoop=1;jettySize=auto;html=1;entryX=1;entryY=0.5;entryDx=0;entryDy=0;entryPerimeter=0;dashed=1;dashPattern=8 8;" edge="1" parent="1" source="8mjCv3t_EtpFAo0UFj7W-5" target="8mjCv3t_EtpFAo0UFj7W-4">
          <mxGeometry relative="1" as="geometry" />
        </mxCell>
        <mxCell id="8mjCv3t_EtpFAo0UFj7W-25" value="Forward Logs via Agent" style="edgeLabel;html=1;align=center;verticalAlign=middle;resizable=0;points=[];" vertex="1" connectable="0" parent="8mjCv3t_EtpFAo0UFj7W-23">
          <mxGeometry x="-0.1152" y="-3" relative="1" as="geometry">
            <mxPoint as="offset" />
          </mxGeometry>
        </mxCell>
        <mxCell id="8mjCv3t_EtpFAo0UFj7W-26" value="Private Network: 172.31.0.0/24&lt;div&gt;IP Range: 172.31.0.1-254&lt;/div&gt;&lt;div style=&quot;text-align: left;&quot;&gt;Subnet Mask: 255.255.255.0&lt;/div&gt;" style="text;html=1;align=center;verticalAlign=middle;whiteSpace=wrap;rounded=0;" vertex="1" parent="1">
          <mxGeometry x="120" y="500" width="180" height="90" as="geometry" />
        </mxCell>
        <mxCell id="8mjCv3t_EtpFAo0UFj7W-31" style="edgeStyle=orthogonalEdgeStyle;rounded=0;orthogonalLoop=1;jettySize=auto;html=1;" edge="1" parent="1" source="8mjCv3t_EtpFAo0UFj7W-27" target="8mjCv3t_EtpFAo0UFj7W-10">
          <mxGeometry relative="1" as="geometry" />
        </mxCell>
        <mxCell id="8mjCv3t_EtpFAo0UFj7W-27" value="" style="outlineConnect=0;dashed=0;verticalLabelPosition=bottom;verticalAlign=top;align=center;html=1;shape=mxgraph.aws3.internet_gateway;fillColor=#F58534;gradientColor=none;" vertex="1" parent="1">
          <mxGeometry x="402.75" y="390" width="54.5" height="60" as="geometry" />
        </mxCell>
        <mxCell id="8mjCv3t_EtpFAo0UFj7W-29" style="edgeStyle=orthogonalEdgeStyle;rounded=0;orthogonalLoop=1;jettySize=auto;html=1;" edge="1" parent="1" source="8mjCv3t_EtpFAo0UFj7W-28" target="8mjCv3t_EtpFAo0UFj7W-27">
          <mxGeometry relative="1" as="geometry" />
        </mxCell>
        <mxCell id="8mjCv3t_EtpFAo0UFj7W-28" value="Internet" style="ellipse;shape=cloud;whiteSpace=wrap;html=1;" vertex="1" parent="1">
          <mxGeometry x="370" y="260" width="120" height="80" as="geometry" />
        </mxCell>
        <mxCell id="8mjCv3t_EtpFAo0UFj7W-33" style="edgeStyle=orthogonalEdgeStyle;rounded=0;orthogonalLoop=1;jettySize=auto;html=1;" edge="1" parent="1" source="8mjCv3t_EtpFAo0UFj7W-32" target="8mjCv3t_EtpFAo0UFj7W-28">
          <mxGeometry relative="1" as="geometry" />
        </mxCell>
        <mxCell id="8mjCv3t_EtpFAo0UFj7W-34" value="Conect to Elastic/Kibana via Web Gui" style="edgeLabel;html=1;align=center;verticalAlign=middle;resizable=0;points=[];" vertex="1" connectable="0" parent="8mjCv3t_EtpFAo0UFj7W-33">
          <mxGeometry x="-0.0041" y="-1" relative="1" as="geometry">
            <mxPoint as="offset" />
          </mxGeometry>
        </mxCell>
        <mxCell id="8mjCv3t_EtpFAo0UFj7W-32" value="SOC Anlyst Laptop" style="verticalLabelPosition=bottom;html=1;verticalAlign=top;align=center;strokeColor=none;fillColor=#00BEF2;shape=mxgraph.azure.laptop;pointerEvents=1;" vertex="1" parent="1">
          <mxGeometry x="30" y="250" width="110" height="70" as="geometry" />
        </mxCell>
        <mxCell id="8mjCv3t_EtpFAo0UFj7W-37" value="Attack Laptop&lt;div&gt;Kali Linux&lt;/div&gt;" style="sketch=0;aspect=fixed;pointerEvents=1;shadow=0;dashed=0;html=1;strokeColor=none;labelPosition=center;verticalLabelPosition=bottom;verticalAlign=top;align=center;fillColor=#00188D;shape=mxgraph.azure.laptop" vertex="1" parent="1">
          <mxGeometry x="730" y="130" width="133.33" height="80" as="geometry" />
        </mxCell>
        <mxCell id="8mjCv3t_EtpFAo0UFj7W-38" style="edgeStyle=orthogonalEdgeStyle;rounded=0;orthogonalLoop=1;jettySize=auto;html=1;entryX=0.96;entryY=0.7;entryDx=0;entryDy=0;entryPerimeter=0;" edge="1" parent="1" source="8mjCv3t_EtpFAo0UFj7W-6" target="8mjCv3t_EtpFAo0UFj7W-28">
          <mxGeometry relative="1" as="geometry" />
        </mxCell>
        <mxCell id="8mjCv3t_EtpFAo0UFj7W-39" style="edgeStyle=orthogonalEdgeStyle;rounded=0;orthogonalLoop=1;jettySize=auto;html=1;entryX=0.717;entryY=0.138;entryDx=0;entryDy=0;entryPerimeter=0;" edge="1" parent="1" source="8mjCv3t_EtpFAo0UFj7W-37" target="8mjCv3t_EtpFAo0UFj7W-28">
          <mxGeometry relative="1" as="geometry" />
        </mxCell>
      </root>
    </mxGraphModel>
  </diagram>
</mxfile>
